<?xml version="1.0" encoding="UTF-8" standalone="no"?>
<svg
   xmlns:dc="http://purl.org/dc/elements/1.1/"
   xmlns:cc="http://creativecommons.org/ns#"
   xmlns:rdf="http://www.w3.org/1999/02/22-rdf-syntax-ns#"
   xmlns:svg="http://www.w3.org/2000/svg"
   xmlns="http://www.w3.org/2000/svg"
   xmlns:sodipodi="http://sodipodi.sourceforge.net/DTD/sodipodi-0.dtd"
   xmlns:inkscape="http://www.inkscape.org/namespaces/inkscape"
   version="1.1"
   id="Capa_1"
   x="0px"
   y="0px"
   viewBox="0 0 432.4 432.4"
   style="enable-background:new 0 0 432.4 432.4;"
   xml:space="preserve"
   sodipodi:docname="bulbUnreachable.svg"
   inkscape:version="1.0.1 (3bc2e813f5, 2020-09-07)"><metadata
   id="metadata61"><rdf:RDF><cc:Work
       rdf:about=""><dc:format>image/svg+xml</dc:format><dc:type
         rdf:resource="http://purl.org/dc/dcmitype/StillImage" /></cc:Work></rdf:RDF></metadata><defs
   id="defs59"><inkscape:path-effect
     effect="bspline"
     id="path-effect859"
     is_visible="true"
     lpeversion="1"
     weight="33.333333"
     steps="2"
     helper_size="0"
     apply_no_weight="true"
     apply_with_weight="true"
     only_selected="false" /></defs><sodipodi:namedview
   pagecolor="#ffffff"
   bordercolor="#666666"
   borderopacity="1"
   objecttolerance="10"
   gridtolerance="10"
   guidetolerance="10"
   inkscape:pageopacity="0"
   inkscape:pageshadow="2"
   inkscape:window-width="1841"
   inkscape:window-height="1051"
   id="namedview57"
   showgrid="false"
   inkscape:zoom="0.50878818"
   inkscape:cx="293.35053"
   inkscape:cy="323.47343"
   inkscape:window-x="-9"
   inkscape:window-y="1431"
   inkscape:window-maximized="1"
   inkscape:current-layer="g20"
   inkscape:document-rotation="0" />
<g
   id="g24">
	<g
   id="g22">
		<g
   id="g20">
			<path
   style="fill:#c1c1c1;fill-opacity:1"
   d="M216.529,93.2c-61.2,0-111.2,50-111.2,111.2c0,32,14,62.8,37.6,83.6c17.6,17.6,16,55.2,15.6,55.6     c0,2,0.4,3.6,2,5.2c1.2,1.2,3.2,2,4.8,2h102c2,0,3.6-0.8,4.8-2c1.2-1.2,2-3.2,2-5.2c0-0.4-2-38,15.6-55.6     c0.4-0.4,0.8-0.8,1.2-1.2c23.2-21.2,36.8-51.2,36.8-82.4C327.729,143.2,277.729,93.2,216.529,93.2z M280.529,277.6     c-0.4,0.4-1.2,1.2-1.2,1.6c-15.6,16.8-18.4,44.4-18.8,57.6h-88.4c-0.4-13.2-3.2-42-20-59.2c-21.2-18.4-33.6-45.2-33.6-73.6     c0-54,43.6-97.6,97.6-97.6s97.6,43.6,97.6,97.6C313.729,232.4,301.729,259.2,280.529,277.6z"
   id="path2" />
			<path
   style="fill:#c1c1c1;fill-opacity:1"
   d="M216.129,121.6c-3.6,0-6.8,3.2-6.8,6.8c0,3.6,3.2,6.8,6.8,6.8c40.4,0,72.8,32.8,72.8,72.8     c0,3.6,3.2,6.8,6.8,6.8c3.6,0,6.8-3.2,6.8-6.8C302.929,160.4,264.129,121.6,216.129,121.6z"
   id="path4" />
			<path
   style="fill:#c1c1c1;fill-opacity:1"
   d="M260.529,358.4h-88.8c-9.2,0-16.8,7.6-16.8,16.8s7.6,16.8,16.8,16.8h88.4     c9.6-0.4,17.2-7.6,17.2-16.8C277.329,366,269.729,358.4,260.529,358.4z M260.529,378h-88.8c-1.6,0-3.2-1.2-3.2-3.2     s1.2-3.2,3.2-3.2h88.4c1.6,0,3.2,1.2,3.2,3.2S262.129,378,260.529,378z"
   id="path6" />
			<path
   style="fill:#c1c1c1;fill-opacity:1"
   d="M247.329,398.8h-62.4c-9.2,0-16.8,7.6-16.8,16.8s7.6,16.8,16.8,16.8h62.4     c9.2,0,16.8-7.6,16.8-16.8C264.129,406,256.529,398.8,247.329,398.8z M247.329,418.4h-62.4c-1.6,0-3.2-1.2-3.2-3.2     s1.2-3.2,3.2-3.2h62.4c1.6,0,3.2,1.2,3.2,3.2S248.929,418.4,247.329,418.4z"
   id="path8" />
			
			
			
			
			
		<path
   style="fill:#c1c1c1;fill-opacity:1;stroke:none;stroke-width:1px;stroke-linecap:butt;stroke-linejoin:miter;stroke-opacity:1"
   d="m 73.137498,80.389602 c 0,0 268.579792,299.941208 268.579792,299.941208 2.85735,0.12746 5.71568,0.25496 7.24911,-0.9765 1.53343,-1.23147 1.74406,-3.82352 1.95461,-6.41472 0,0 -269.444794,-300.714979 -269.444794,-300.714979 -2.432126,0.289539 -4.863382,0.578975 -6.253664,1.94028 -1.390281,1.361304 -1.737607,3.792587 -2.085054,6.224711 z"
   id="path857"
   inkscape:path-effect="#path-effect859"
   inkscape:original-d="M 73.137498,80.389602 341.71729,380.33081 c 0,0 5.71564,0.25591 8.57206,0.38237 0.21155,-2.59025 0.63166,-7.77359 0.63166,-7.77359 L 81.476216,72.224611 c 0,0 -4.863251,0.580078 -7.296378,0.868618 -0.346447,2.433126 -1.04234,7.296373 -1.04234,7.296373 z"
   sodipodi:nodetypes="cccccsc" /></g>
	</g>
</g>
<g
   id="g26">
</g>
<g
   id="g28">
</g>
<g
   id="g30">
</g>
<g
   id="g32">
</g>
<g
   id="g34">
</g>
<g
   id="g36">
</g>
<g
   id="g38">
</g>
<g
   id="g40">
</g>
<g
   id="g42">
</g>
<g
   id="g44">
</g>
<g
   id="g46">
</g>
<g
   id="g48">
</g>
<g
   id="g50">
</g>
<g
   id="g52">
</g>
<g
   id="g54">
</g>
</svg>
