<?xml version="1.0" encoding="UTF-8" standalone="no"?>
<svg
   xmlns:dc="http://purl.org/dc/elements/1.1/"
   xmlns:cc="http://creativecommons.org/ns#"
   xmlns:rdf="http://www.w3.org/1999/02/22-rdf-syntax-ns#"
   xmlns:svg="http://www.w3.org/2000/svg"
   xmlns="http://www.w3.org/2000/svg"
   xmlns:sodipodi="http://sodipodi.sourceforge.net/DTD/sodipodi-0.dtd"
   xmlns:inkscape="http://www.inkscape.org/namespaces/inkscape"
   version="1.1"
   id="Layer_1"
   x="0px"
   y="0px"
   viewBox="0 0 511.996 511.996"
   style="enable-background:new 0 0 511.996 511.996;"
   xml:space="preserve"
   sodipodi:docname="turn-off.svg"
   inkscape:version="1.0.1 (3bc2e813f5, 2020-09-07)"><metadata
   id="metadata47"><rdf:RDF><cc:Work
       rdf:about=""><dc:format>image/svg+xml</dc:format><dc:type
         rdf:resource="http://purl.org/dc/dcmitype/StillImage" /></cc:Work></rdf:RDF></metadata><defs
   id="defs45" /><sodipodi:namedview
   pagecolor="#ffffff"
   bordercolor="#666666"
   borderopacity="1"
   objecttolerance="10"
   gridtolerance="10"
   guidetolerance="10"
   inkscape:pageopacity="0"
   inkscape:pageshadow="2"
   inkscape:window-width="2482"
   inkscape:window-height="1411"
   id="namedview43"
   showgrid="false"
   inkscape:zoom="1.7187634"
   inkscape:cx="255.998"
   inkscape:cy="255.998"
   inkscape:window-x="-7"
   inkscape:window-y="-9"
   inkscape:window-maximized="1"
   inkscape:current-layer="g6" />
<g
   id="g10">
	<g
   id="g8">
		<g
   id="g6">
			<path
   d="M349.85,62.196c-10.797-4.717-23.373,0.212-28.09,11.009c-4.717,10.797,0.212,23.373,11.009,28.09     c69.412,30.324,115.228,98.977,115.228,176.035c0,106.034-85.972,192-192,192c-106.042,0-192-85.958-192-192     c0-77.041,45.8-145.694,115.192-176.038c10.795-4.72,15.72-17.298,10.999-28.093c-4.72-10.795-17.298-15.72-28.093-10.999     C77.306,99.275,21.331,183.181,21.331,277.329c0,129.606,105.061,234.667,234.667,234.667     c129.592,0,234.667-105.068,234.667-234.667C490.665,183.159,434.667,99.249,349.85,62.196z"
   id="path2"
   style="fill:#e1e1e1;fill-opacity:1" />
			<path
   d="M255.989,234.667c11.782,0,21.333-9.551,21.333-21.333v-192C277.323,9.551,267.771,0,255.989,0     c-11.782,0-21.333,9.551-21.333,21.333v192C234.656,225.115,244.207,234.667,255.989,234.667z"
   id="path4"
   style="fill:#e1e1e1;fill-opacity:1" />
		</g>
	</g>
</g>
<g
   id="g12">
</g>
<g
   id="g14">
</g>
<g
   id="g16">
</g>
<g
   id="g18">
</g>
<g
   id="g20">
</g>
<g
   id="g22">
</g>
<g
   id="g24">
</g>
<g
   id="g26">
</g>
<g
   id="g28">
</g>
<g
   id="g30">
</g>
<g
   id="g32">
</g>
<g
   id="g34">
</g>
<g
   id="g36">
</g>
<g
   id="g38">
</g>
<g
   id="g40">
</g>
</svg>
